# xmcd
# Copyright (C) 1995-1998 Ti Kan
#
# Track frame offsets:
#       150
#       30496
#       58599
#       98573
#       130218
#       158895
#       181971
#
# Disc length: 2753 seconds
#
# Revision: 0
# Processed by: cddbd v1.5.2PL0 Copyright (c) Steve Scherf et al.
# Submitted via: CD-Transfer v1.0
#
DISCID=500abf07
DTITLE=Mohamed Omar - 
DYEAR=1900
DGENRE=
TTITLE0=01- Hal Ya Ta Ye3oud
TTITLE1=02- Hada Chehal
TTITLE2=03- Khalini B3id
TTITLE3=04- Ya Bhar Ya Ghamek
TTITLE4=05- W3adni Hbibi
TTITLE5=06- Mimti Semhiliya
TTITLE6=07- Mebrouk El Ferha
EXTD=
EXTT0=
EXTT1=
EXTT2=
EXTT3=
EXTT4=
EXTT5=
EXTT6=
PLAYORDER=
